<!-- SVG Icon for conversion to PNG -->
<svg width="512" height="512" viewBox="0 0 512 512" xmlns="http://www.w3.org/2000/svg">
  <rect width="512" height="512" fill="#000000"/>
  
  <!-- Chat bubble -->
  <path d="M 100 150 Q 100 100 150 100 L 362 100 Q 412 100 412 150 L 412 250 Q 412 300 362 300 L 200 300 L 150 350 L 150 300 Q 100 300 100 250 Z" 
        fill="none" stroke="#00ff00" stroke-width="8"/>
  
  <!-- Text lines -->
  <line x1="140" y1="160" x2="372" y2="160" stroke="#00ff00" stroke-width="4"/>
  <line x1="140" y1="190" x2="320" y2="190" stroke="#00ff00" stroke-width="4"/>
  <line x1="140" y1="220" x2="280" y2="220" stroke="#00ff00" stroke-width="4"/>
  
  <!-- Network nodes -->
  <circle cx="256" cy="400" r="12" fill="#00ff00"/>
  <circle cx="180" cy="370" r="8" fill="#00ff00"/>
  <circle cx="332" cy="370" r="8" fill="#00ff00"/>
  <circle cx="150" cy="420" r="6" fill="#00ff00"/>
  <circle cx="362" cy="420" r="6" fill="#00ff00"/>
  
  <!-- Network connections -->
  <line x1="256" y1="400" x2="180" y2="370" stroke="#00ff00" stroke-width="2"/>
  <line x1="256" y1="400" x2="332" y2="370" stroke="#00ff00" stroke-width="2"/>
  <line x1="180" y1="370" x2="150" y2="420" stroke="#00ff00" stroke-width="2"/>
  <line x1="332" y1="370" x2="362" y2="420" stroke="#00ff00" stroke-width="2"/>
  
  <!-- Title -->
  <text x="256" y="480" text-anchor="middle" fill="#00ff00" font-family="monospace" font-size="24" font-weight="bold">bitchat</text>
</svg>
